<svg id="Layer_1" data-name="Layer 1" xmlns="http://www.w3.org/2000/svg" viewBox="0 0 393.83 232.09"><defs><style>.cls-1{fill:#ffaa30;}</style></defs><path class="cls-1" d="M65.15,297.91q-8.1-5.79-16.05-11.83c7.31.13,14.67.12,21.85-.25A397.88,397.88,0,0,0,130.07,278a455.91,455.91,0,0,0,107.75-36.38,443.77,443.77,0,0,0,95.11-62.14c27.6-23.7,55.91-51.32,62.94-88.28,1.24-6.53-8.73-10.94-12.31-5-36.87,60.6-94.72,106.11-158.51,136A431.43,431.43,0,0,1,122.88,255.5a467.51,467.51,0,0,1-50.7,6.63c-11.27.87-22.76,1.29-34.14,2.22,11.58-8.12,23.21-16.21,32.58-26.75C77,230.48,67.48,218.23,59,222.69c-19.81,10.39-34.55,28.38-53.06,40.72-4.38,2.92-5,10.22-1.68,14.09,13.94,16.27,32.28,27.81,51.45,37C65.61,319.29,74,304.24,65.15,297.91Z" transform="translate(-2.15 -83.36)"/></svg>